<?xml version="1.0" standalone="no"?>
<!DOCTYPE svg PUBLIC "-//W3C//DTD SVG 20010904//EN"
 "http://www.w3.org/TR/2001/REC-SVG-20010904/DTD/svg10.dtd">
<svg version="1.0" xmlns="http://www.w3.org/2000/svg"
 width="920.000000pt" height="483.000000pt" viewBox="0 0 920.000000 483.000000"
 preserveAspectRatio="xMidYMid meet">

<g transform="translate(0.000000,483.000000) scale(0.100000,-0.100000)"
fill="#000000" stroke="none">
<path d="M4050 4824 c-281 -29 -479 -81 -695 -183 -494 -235 -857 -645 -1030
-1163 -130 -391 -138 -795 -24 -1183 23 -78 42 -105 73 -105 12 0 255 139 541
308 408 242 521 314 527 333 4 13 12 66 18 118 20 154 68 265 166 384 93 112
216 192 364 238 61 19 99 23 200 23 139 1 210 -14 319 -64 35 -17 70 -30 78
-30 8 0 90 44 181 98 662 391 869 516 880 530 21 28 13 51 -35 104 -217 232
-572 439 -903 527 -109 29 -223 50 -325 59 -92 9 -272 12 -335 6z m384 -130
c336 -44 643 -173 913 -383 87 -68 161 -138 152 -144 -2 -2 -25 -16 -52 -31
l-47 -27 -63 35 c-173 97 -445 183 -672 213 -78 10 -382 10 -465 0 -36 -4
-116 -19 -179 -33 -505 -113 -943 -421 -1210 -852 -190 -305 -288 -639 -295
-1001 l-1 -72 -49 -30 c-26 -17 -50 -28 -53 -26 -8 9 -41 147 -55 232 -8 50
-12 159 -12 290 1 186 4 224 28 337 36 178 78 301 150 453 72 151 131 246 226
365 298 373 746 622 1223 679 105 13 347 10 461 -5z"/>
<path d="M6529 4312 c-90 -54 -269 -160 -397 -236 -256 -152 -271 -167 -218
-212 20 -18 32 -21 49 -15 55 21 784 462 801 484 18 24 18 27 2 51 -28 44 -59
34 -237 -72z"/>
<path d="M6780 3997 c-69 -41 -258 -153 -420 -249 -162 -96 -540 -320 -840
-498 -300 -177 -553 -330 -564 -340 -14 -14 -21 -41 -27 -111 -47 -512 -568
-819 -1042 -614 -44 19 -86 35 -92 35 -6 0 -52 -24 -101 -54 -49 -29 -190
-113 -314 -186 -124 -73 -319 -190 -435 -259 -264 -158 -259 -146 -118 -282
194 -189 397 -317 665 -420 490 -190 1059 -167 1546 61 62 29 114 51 115 49 2
-2 135 -227 296 -499 383 -646 362 -613 394 -624 47 -17 60 10 122 239 73 271
169 627 295 1095 137 509 256 949 347 1285 41 154 101 377 133 495 32 118 80
294 105 390 26 96 67 247 91 334 24 88 44 167 44 176 0 22 -31 50 -56 50 -11
0 -76 -33 -144 -73z m36 -144 c-7 -26 -135 -504 -281 -1043 -95 -351 -222
-823 -325 -1205 -50 -187 -124 -461 -165 -610 -40 -148 -104 -384 -141 -523
-53 -198 -70 -250 -79 -240 -33 36 -564 950 -570 981 -15 76 -49 89 -125 46
-212 -117 -411 -188 -650 -231 -101 -18 -469 -18 -570 0 -393 71 -705 221
-984 474 l-49 44 54 31 54 31 60 -32 c158 -85 377 -163 530 -190 17 -3 41 -8
54 -11 76 -15 156 -20 321 -20 159 0 312 9 330 20 3 2 23 6 45 9 22 4 81 18
131 31 291 79 590 245 794 441 l54 52 16 -61 c40 -154 175 -270 328 -284 165
-15 334 98 388 259 39 118 2 267 -90 366 -69 73 -140 105 -247 110 l-87 4 48
97 c84 167 149 362 180 538 5 35 12 75 15 90 3 16 8 87 11 158 3 72 9 133 13
138 10 11 924 555 935 556 4 1 5 -11 2 -26z m-1010 -1705 c87 -55 130 -139
121 -236 -6 -68 -23 -107 -68 -151 -100 -100 -255 -102 -353 -5 -123 122 -88
326 69 401 68 33 170 29 231 -9z"/>
<path d="M5646 3784 c-19 -18 -21 -65 -4 -82 21 -21 66 -14 83 12 35 53 -34
115 -79 70z"/>
<path d="M5109 3470 c-140 -83 -262 -160 -272 -172 -32 -38 4 -95 53 -83 26 7
503 286 533 313 20 17 23 62 5 80 -27 27 -70 9 -319 -138z"/>
<path d="M4065 3316 c-149 -48 -264 -155 -321 -301 -15 -39 -19 -75 -19 -160
0 -106 1 -113 37 -188 85 -177 244 -280 431 -278 125 1 239 46 331 130 40 37
94 123 116 185 88 258 -63 542 -325 611 -71 18 -194 19 -250 1z m472 -365 c68
-236 -152 -485 -392 -444 -36 6 -86 21 -111 33 -49 24 -147 115 -142 132 2 6
139 90 303 189 337 200 312 193 342 90z"/>
<path d="M3264 2374 c-126 -75 -248 -147 -271 -161 -44 -25 -58 -50 -48 -81 7
-26 45 -41 72 -31 38 14 517 301 531 317 19 24 14 59 -10 76 -12 9 -27 16 -34
16 -6 0 -114 -61 -240 -136z"/>
<path d="M2666 2014 c-33 -33 -7 -94 41 -94 25 0 53 30 53 57 0 44 -63 69 -94
37z"/>
<path d="M2395 1850 c-25 -27 -10 -71 27 -84 22 -8 32 -6 48 9 22 20 27 64 8
83 -19 19 -63 14 -83 -8z"/>
</g>
</svg>
